<svg width="83" height="81" viewBox="0 0 83 81" fill="currentColor" xmlns="http://www.w3.org/2000/svg">
<path d="M27.7615 65.2211C27.7615 65.5561 27.3766 65.824 26.8913 65.824C26.3391 65.8743 25.9542 65.6063 25.9542 65.2211C25.9542 64.8861 26.3391 64.6181 26.8244 64.6181C27.3264 64.5679 27.7615 64.8358 27.7615 65.2211ZM22.5573 64.4674C22.4401 64.8023 22.7748 65.1876 23.2768 65.2881C23.7119 65.4556 24.2139 65.2881 24.3143 64.9531C24.4147 64.6181 24.0968 64.2329 23.5948 64.0821C23.1597 63.9649 22.6744 64.1324 22.5573 64.4674ZM29.9536 64.1826C29.4683 64.2999 29.1337 64.6181 29.1839 65.0033C29.2341 65.3383 29.6692 65.5561 30.1712 65.4388C30.6565 65.3216 30.9911 65.0033 30.9409 64.6684C30.8907 64.3501 30.4389 64.1324 29.9536 64.1826ZM40.9645 0C17.7546 0 0 17.6368 0 40.8679C0 59.4426 11.6802 75.3375 28.3639 80.9318C30.5058 81.317 31.2589 79.9938 31.2589 78.9051C31.2589 77.8667 31.2087 72.1385 31.2087 68.6212C31.2087 68.6212 19.495 71.1335 17.0351 63.6299C17.0351 63.6299 15.1274 58.7559 12.3831 57.4997C12.3831 57.4997 8.55101 54.8701 12.6508 54.9204C12.6508 54.9204 16.8175 55.2554 19.1101 59.2416C22.7748 65.7068 28.9161 63.8477 31.3091 62.7422C31.694 60.0623 32.7817 58.2032 33.9865 57.0978C24.6323 56.0593 15.1944 54.7026 15.1944 38.59C15.1944 33.984 16.4661 31.6726 19.1435 28.7247C18.7085 27.6361 17.2861 23.1473 19.5786 17.3521C23.076 16.2634 31.125 21.8744 31.125 21.8744C34.4718 20.9364 38.0696 20.4507 41.6339 20.4507C45.1982 20.4507 48.796 20.9364 52.1427 21.8744C52.1427 21.8744 60.1917 16.2466 63.6891 17.3521C65.9817 23.164 64.5593 27.6361 64.1242 28.7247C66.8016 31.6893 68.4415 34.0007 68.4415 38.59C68.4415 54.7529 58.5853 56.0426 49.2311 57.0978C50.7706 58.4209 52.0758 60.9333 52.0758 64.8693C52.0758 70.5138 52.0256 77.4982 52.0256 78.8716C52.0256 79.9603 52.7954 81.2835 54.9206 80.8983C71.6544 75.3375 83 59.4426 83 40.8679C83 17.6368 64.1744 0 40.9645 0ZM16.2653 57.7677C16.0478 57.9352 16.098 58.3204 16.3825 58.6387C16.6502 58.9067 17.0351 59.0239 17.2526 58.8062C17.4702 58.6387 17.42 58.2534 17.1355 57.9352C16.8677 57.6672 16.4829 57.55 16.2653 57.7677ZM14.4581 56.411C14.3409 56.6288 14.5083 56.8968 14.8429 57.0643C15.1107 57.2317 15.4454 57.1815 15.5625 56.947C15.6796 56.7293 15.5123 56.4613 15.1776 56.2938C14.8429 56.1933 14.5752 56.2435 14.4581 56.411ZM19.8798 62.3737C19.6121 62.5915 19.7125 63.0939 20.0974 63.4122C20.4823 63.7974 20.9675 63.8477 21.1851 63.5797C21.4026 63.3619 21.3022 62.8595 20.9675 62.5412C20.5994 62.156 20.0974 62.1057 19.8798 62.3737ZM17.9722 59.9116C17.7044 60.0791 17.7044 60.5146 17.9722 60.8998C18.2399 61.285 18.6917 61.4525 18.9093 61.285C19.177 61.0673 19.177 60.6318 18.9093 60.2466C18.675 59.8614 18.2399 59.6939 17.9722 59.9116Z"/>
</svg>
