<svg width="83" height="81" viewBox="0 0 83 81" fill="currentColor" xmlns="http://www.w3.org/2000/svg">
<path d="M70.5714 0H5.41161C2.42589 0 0 2.42746 0 5.40737V69.5926C0 72.5725 2.42589 75 5.41161 75H70.5714C73.5571 75 76 72.5725 76 69.5926V5.40737C76 2.42746 73.5571 0 70.5714 0ZM22.9696 64.2857H11.7054V28.4933H22.9866V64.2857H22.9696ZM17.3375 23.6049C13.7241 23.6049 10.8062 20.7087 10.8062 17.1596C10.8062 13.6105 13.7241 10.7143 17.3375 10.7143C20.9339 10.7143 23.8687 13.6105 23.8687 17.1596C23.8687 20.7254 20.9509 23.6049 17.3375 23.6049ZM65.1937 64.2857H53.9295V46.875C53.9295 42.7232 53.8446 37.3828 48.0768 37.3828C42.2071 37.3828 41.308 41.9029 41.308 46.5737V64.2857H30.0437V28.4933H40.85V33.3817H41.0027C42.5125 30.5692 46.1937 27.606 51.6732 27.606C63.0732 27.606 65.1937 35.0223 65.1937 44.6652V64.2857Z"/>
</svg>
