<svg width="83" height="81" viewBox="0 0 83 81" fill="currentColor" xmlns="http://www.w3.org/2000/svg">
<path d="M18.75 91.5628C17.0833 91.5628 15.625 90.9378 14.375 89.6878C13.125 88.4378 12.5 86.9795 12.5 85.3128V22.5003H18.75V85.3128H68.125V91.5628H18.75ZM31.25 79.0628C29.5833 79.0628 28.125 78.4378 26.875 77.1878C25.625 75.9378 25 74.4795 25 72.8128V14.4795C25 12.8128 25.625 11.3545 26.875 10.1045C28.125 8.85449 29.5833 8.22949 31.25 8.22949H77.0833C78.75 8.22949 80.2083 8.85449 81.4583 10.1045C82.7083 11.3545 83.3333 12.8128 83.3333 14.4795V72.8128C83.3333 74.4795 82.7083 75.9378 81.4583 77.1878C80.2083 78.4378 78.75 79.0628 77.0833 79.0628H31.25ZM31.25 72.8128H77.0833V14.4795H31.25V72.8128Z"/>
</svg>
