<svg width="83" height="81" viewBox="0 0 83 81" fill="currentColor" xmlns="http://www.w3.org/2000/svg">
<path d="M31.2723 28.4766L47.2098 37.5335L31.2723 46.5904V28.4766ZM75 8.03571V66.9643C75 71.4007 71.4007 75 66.9643 75H8.03571C3.59933 75 0 71.4007 0 66.9643V8.03571C0 3.59933 3.59933 0 8.03571 0H66.9643C71.4007 0 75 3.59933 75 8.03571ZM67.9688 37.5502C67.9688 37.5502 67.9687 27.5725 66.6964 22.7846C65.9933 20.1395 63.9342 18.0636 61.3058 17.3605C56.5681 16.0714 37.5 16.0714 37.5 16.0714C37.5 16.0714 18.4319 16.0714 13.6942 17.3605C11.0658 18.0636 9.0067 20.1395 8.30357 22.7846C7.03125 27.5558 7.03125 37.5502 7.03125 37.5502C7.03125 37.5502 7.03125 47.5279 8.30357 52.3158C9.0067 54.9609 11.0658 56.9531 13.6942 57.6562C18.4319 58.9286 37.5 58.9286 37.5 58.9286C37.5 58.9286 56.5681 58.9286 61.3058 57.6395C63.9342 56.9364 65.9933 54.9442 66.6964 52.2991C67.9687 47.5279 67.9688 37.5502 67.9688 37.5502Z"/>
</svg>
